<?xml version="1.0" ?><!DOCTYPE svg  PUBLIC '-//W3C//DTD SVG 1.1//EN'  'http://www.w3.org/Graphics/SVG/1.1/DTD/svg11.dtd'><svg width="0px" height="0px" style="fill-rule:evenodd;clip-rule:evenodd;stroke-linejoin:round;stroke-miterlimit:2;" version="1.1" xml:space="preserve" xmlns="http://www.w3.org/2000/svg" xmlns:serif="http://www.serif.com/" xmlns:xlink="http://www.w3.org/1999/xlink"><g id="Icon"><path d="M11.437,8.681c-0.229,0.296 -0.365,0.666 -0.365,1.069l0,1.468c-0.597,0.329 -1.036,1.003 -1.036,1.831c0,0.082 1.248,5.048 1.248,7.451c0,2.403 -1.248,7.369 -1.248,7.451c0,1.18 0.892,2.049 1.864,2.049l8.272,-0c0.972,-0 1.864,-0.869 1.864,-2.049c0,-0.058 -1.248,-7.147 -1.248,-7.451c-0,-1.209 1.248,-7.385 1.248,-7.451c0,-0.712 -0.325,-1.311 -0.796,-1.674c0.003,-0.041 0.005,-1.625 0.005,-1.625c-0,-0.487 -0.199,-0.927 -0.52,-1.244c0.083,-0.371 0.173,-0.767 0.188,-1.154c0.027,-0.692 -0.13,-1.36 -0.63,-1.941c-0.348,-0.404 -0.892,-0.786 -1.758,-1.058c-0.003,-0.387 -0.009,-0.772 -0.009,-0.81c-0.004,-0.414 -0.191,-0.804 -0.614,-1.094c-0.382,-0.263 -1.119,-0.449 -1.869,-0.449c-0.75,-0 -1.487,0.186 -1.87,0.449c-0.422,0.29 -0.609,0.68 -0.613,1.094c-0.001,0.05 -0.008,0.439 -0.011,0.828c-0.854,0.277 -1.389,0.66 -1.729,1.064c-0.489,0.582 -0.638,1.247 -0.605,1.936c0.021,0.442 0.142,0.894 0.232,1.31Zm8.59,4.319c-0.19,0.964 -1.239,6.341 -1.239,7.5c-0,0.294 1.074,6.53 1.241,7.497l-0,0.003l-7.975,-0c0.232,-0.963 1.23,-5.234 1.23,-7.5c0,-2.267 -0.999,-6.54 -1.231,-7.5l7.974,0Zm-0.782,-2.784l-6.173,-0l0,0.784l6.173,-0l-0,-0.784Zm-0.442,-2.216l-5.484,-0c-0.015,-0.071 -0.238,-0.968 0.022,-1.277c0.234,-0.279 0.681,-0.456 1.404,-0.601c0.327,-0.065 0.6,-0.288 0.728,-0.595c0.069,-0.166 0.091,-0.344 0.068,-0.516l0.006,-1.011l0.971,0l0.005,1.009c-0.022,0.177 0.004,0.36 0.079,0.528c0.133,0.299 0.404,0.515 0.726,0.576c0.739,0.142 1.196,0.321 1.439,0.602c0.267,0.311 0.051,1.215 0.036,1.285Z"/></g></svg>