<?xml version="1.0" ?><!DOCTYPE svg  PUBLIC '-//W3C//DTD SVG 1.1//EN'  'http://www.w3.org/Graphics/SVG/1.1/DTD/svg11.dtd'><svg width="0px" height="0px" style="fill-rule:evenodd;clip-rule:evenodd;stroke-linejoin:round;stroke-miterlimit:2;" version="1.1" xml:space="preserve" xmlns="http://www.w3.org/2000/svg" xmlns:serif="http://www.serif.com/" xmlns:xlink="http://www.w3.org/1999/xlink"><g id="Icon"><path d="M6.159,7.382l4.876,17.881c0.014,0.051 0.032,0.101 0.053,0.148c-0.057,0.186 -0.088,0.384 -0.088,0.589c-0,-0 -0,2 -0,2c-0,1.104 0.896,2 2,2l6,-0c1.104,-0 2,-0.896 2,-2l0,-2c0,-0.205 -0.031,-0.403 -0.088,-0.589c0.021,-0.047 0.039,-0.097 0.053,-0.148l4.876,-17.881c0.35,-1.281 0.082,-2.652 -0.724,-3.707c-0.807,-1.056 -2.059,-1.675 -3.387,-1.675l-11.46,-0c-1.328,-0 -2.58,0.619 -3.387,1.675c-0.806,1.055 -1.074,2.426 -0.724,3.707Zm12.841,20.618l-6,-0l0,-2c0,-0 6,-0 6,-0c0,-0 0,2 0,2Zm1.6,-9l-1.364,5c0,-0 -6.472,-0 -6.472,-0l-1.364,-5l9.2,-0Zm2.314,-8.487l0.14,-0.513l-14.108,0l1.909,7l10.29,-0l1.769,-6.487Zm0.686,-2.513l-15.2,-0l-0.312,-1.144c-0.185,-0.68 -0.043,-1.407 0.385,-1.967c0.428,-0.56 1.092,-0.889 1.797,-0.889l11.46,-0c0.705,-0 1.369,0.329 1.797,0.889c0.428,0.56 0.57,1.287 0.385,1.967l-0.312,1.144Z"/><path d="M16,11c-1.469,-0 -2.726,0.48 -3.359,1.091c-0.432,0.417 -0.641,0.907 -0.641,1.409c0,0.502 0.209,0.992 0.641,1.409c0.633,0.611 1.89,1.091 3.359,1.091c1.469,-0 2.726,-0.48 3.359,-1.091c0.432,-0.417 0.641,-0.907 0.641,-1.409c-0,-0.502 -0.209,-0.992 -0.641,-1.409c-0.633,-0.611 -1.89,-1.091 -3.359,-1.091Zm1.674,2.334c0.082,0.041 0.082,0.291 -0,0.332c-0.428,0.214 -1.022,0.334 -1.674,0.334c-0.652,-0 -1.246,-0.12 -1.674,-0.334c-0.082,-0.041 -0.082,-0.291 0,-0.332c0.428,-0.214 1.022,-0.334 1.674,-0.334c0.652,-0 1.246,0.12 1.674,0.334Z"/></g></svg>