<?xml version="1.0" ?><!DOCTYPE svg  PUBLIC '-//W3C//DTD SVG 1.1//EN'  'http://www.w3.org/Graphics/SVG/1.1/DTD/svg11.dtd'><svg width="0px" height="0px" style="fill-rule:evenodd;clip-rule:evenodd;stroke-linejoin:round;stroke-miterlimit:2;" version="1.1" xml:space="preserve" xmlns="http://www.w3.org/2000/svg" xmlns:serif="http://www.serif.com/" xmlns:xlink="http://www.w3.org/1999/xlink"><g id="Icon"><path d="M10.064,6.524l-3.848,4.855c-0.14,0.177 -0.216,0.395 -0.216,0.621l-0,17c-0,0.552 0.448,1 1,1l18,-0c0.552,-0 1,-0.448 1,-1l0,-17c0,-0.226 -0.076,-0.444 -0.216,-0.621l-3.851,-4.858c0.125,-0.085 0.243,-0.183 0.351,-0.291c0.459,-0.458 0.716,-1.08 0.716,-1.728l-0,-0.004c0,-0.648 -0.257,-1.27 -0.716,-1.728c-0.458,-0.458 -1.08,-0.716 -1.728,-0.716c-2.31,0 -6.811,0 -9.121,0c-0.648,0 -1.269,0.258 -1.728,0.716c-0.458,0.458 -0.716,1.08 -0.716,1.728c0,0.001 0,0.003 0,0.004c0,0.648 0.258,1.27 0.716,1.728c0.11,0.11 0.23,0.208 0.357,0.294Zm13.936,19.476l0,2c-0,-0 -16,-0 -16,-0l-0,-2l16,0Zm-16,-2.949l-0,0.949l16,0l-0,-3l-16,-0l-0,2.051Zm16,-8.552c-0.001,-1.103 -0.897,-1.999 -2,-1.999c-1.104,-0 -2,0.896 -2,2c0,0.052 -0.004,0.103 -0.012,0.153c-0.08,2.137 -1.84,3.847 -3.997,3.847c-2.125,-0 -3.86,-1.66 -3.987,-3.754l-0.004,-0.231c-0.065,-1.06 -0.926,-2.015 -2,-2.015c-1.069,-0 -1.944,0.841 -1.997,1.897l-0.003,0.103l-0,4.5l16,0l-0,-4.501Zm-14.567,-3.959c0.185,-0.026 0.374,-0.04 0.567,-0.04c2.123,-0 3.888,1.832 3.999,3.927l0.001,0.199c0.064,1.045 0.93,1.874 1.991,1.874c1.104,-0 2,-0.896 2,-2c0,-0.052 0.004,-0.103 0.012,-0.153c0.081,-2.137 1.841,-3.847 3.997,-3.847c0.193,-0 0.382,0.014 0.567,0.04l-2.806,-3.54l-7.522,-0l-2.806,3.54Zm11.567,-6.042l0,0.004c0,0.118 -0.047,0.231 -0.13,0.314c-0.083,0.083 -0.196,0.13 -0.314,0.13l-9.121,-0c-0.117,-0 -0.23,-0.047 -0.313,-0.13c-0.084,-0.083 -0.131,-0.196 -0.131,-0.314l0,-0.004c0,-0.118 0.047,-0.231 0.131,-0.314c0.083,-0.083 0.196,-0.13 0.313,-0.13l9.121,0c0.118,0 0.231,0.047 0.314,0.13c0.083,0.083 0.13,0.196 0.13,0.314Z"/></g></svg>