<?xml version="1.0" ?><!DOCTYPE svg  PUBLIC '-//W3C//DTD SVG 1.1//EN'  'http://www.w3.org/Graphics/SVG/1.1/DTD/svg11.dtd'><svg width="0px" height="0px" style="fill-rule:evenodd;clip-rule:evenodd;stroke-linejoin:round;stroke-miterlimit:2;" version="1.1" xml:space="preserve" xmlns="http://www.w3.org/2000/svg" xmlns:serif="http://www.serif.com/" xmlns:xlink="http://www.w3.org/1999/xlink"><g id="Icon"><path d="M24,26.75l-0,-21.5c-0,-1.773 -1.514,-3.25 -3.423,-3.25c-0,0 -5.291,0 -5.385,0c-1.66,0 -3.25,1.049 -4.494,2.965c-1.619,2.491 -2.698,6.504 -2.698,11.035c-0,4.531 1.079,8.544 2.698,11.035c1.244,1.916 2.834,2.965 4.494,2.965l5.385,-0c1.909,-0 3.423,-1.477 3.423,-3.25Zm-2,-15.561c-4.205,-0.624 -8.192,0.302 -11.936,2.966c-0.042,0.602 -0.064,1.218 -0.064,1.845c-0,4.079 0.918,7.704 2.375,9.946c0.806,1.24 1.742,2.054 2.817,2.054c0,0 5.385,-0 5.385,-0c0.766,-0 1.423,-0.539 1.423,-1.25l-0,-15.561Zm-8.761,-6.234c-0.303,0.308 -0.591,0.679 -0.864,1.099c-0.898,1.383 -1.592,3.29 -1.991,5.506c3.677,-2.186 7.556,-2.936 11.616,-2.391c-0,-0 -0.004,-4.035 -0.013,-4.091c-0.668,1.545 -2.343,2.672 -4.348,2.672c-2.058,0 -3.768,-1.187 -4.4,-2.795Zm6.935,-0.705c-0.347,0.891 -1.374,1.5 -2.535,1.5c-1.162,0 -2.189,-0.609 -2.536,-1.5l5.071,0Z"/><path d="M13.266,16.266c-1.041,0.471 -1.766,1.518 -1.766,2.734c-0,1.216 0.725,2.264 1.766,2.735c0.47,1.04 1.518,1.765 2.734,1.765c1.216,0 2.264,-0.725 2.735,-1.766c1.04,-0.47 1.765,-1.518 1.765,-2.734c0,-1.216 -0.725,-2.264 -1.766,-2.735c-0.47,-1.04 -1.518,-1.765 -2.734,-1.765c-1.216,0 -2.263,0.725 -2.734,1.766Zm1.009,1.759c0.373,-0.085 0.665,-0.377 0.75,-0.75c0.102,-0.444 0.5,-0.775 0.975,-0.775c0.475,0 0.873,0.331 0.975,0.775c0.085,0.373 0.377,0.665 0.75,0.75c0.444,0.102 0.775,0.5 0.775,0.975c0,0.475 -0.331,0.873 -0.775,0.975c-0.373,0.085 -0.665,0.377 -0.75,0.75c-0.102,0.444 -0.5,0.775 -0.975,0.775c-0.475,0 -0.873,-0.331 -0.975,-0.775c-0.085,-0.373 -0.377,-0.665 -0.75,-0.75c-0.444,-0.102 -0.775,-0.5 -0.775,-0.975c-0,-0.475 0.331,-0.873 0.775,-0.975Z"/></g></svg>