<?xml version="1.0" ?><!DOCTYPE svg  PUBLIC '-//W3C//DTD SVG 1.1//EN'  'http://www.w3.org/Graphics/SVG/1.1/DTD/svg11.dtd'><svg width="0px" height="0px" style="fill-rule:evenodd;clip-rule:evenodd;stroke-linejoin:round;stroke-miterlimit:2;" version="1.1" xml:space="preserve" xmlns="http://www.w3.org/2000/svg" xmlns:serif="http://www.serif.com/" xmlns:xlink="http://www.w3.org/1999/xlink"><g id="Icon"><path d="M18.914,2l-5.914,0c-0.552,0 -1,0.448 -1,1c0,0.55 0.445,0.997 0.994,1l-0.013,2.153c-0.354,0.194 -1.175,0.637 -1.891,0.971c-1.503,0.701 -3.258,1.542 -4.182,2.36c-0.637,0.565 -0.936,1.18 -0.936,1.727c0,-0 0,1.789 0,1.789c0,0.552 0.448,1 1,1l0.985,-0l-0,1.985c-1.084,0.021 -1.957,0.908 -1.957,1.996l-0,1.993c-0,1.088 0.873,1.975 1.957,1.995l0,2.046l-0.985,0c-0.552,0 -1,0.448 -1,1l0,1.426c0,0.849 0.434,1.664 1.255,2.301c0.958,0.744 2.497,1.258 4.241,1.258l8.991,-0c1.744,-0 3.283,-0.514 4.241,-1.258c0.821,-0.637 1.255,-1.452 1.255,-2.301l-0,-1.426c-0,-0.552 -0.448,-1 -1,-1l-0.998,0l-0,-2.045l0.002,-0c1.101,-0 1.996,-0.895 1.996,-1.996l-0,-1.993c-0,-1.102 -0.895,-1.996 -1.996,-1.996l-0.002,-0l-0,-1.985l0.998,-0c0.552,0 1,-0.448 1,-1l-0,-1.789c-0,-0.546 -0.297,-1.16 -0.929,-1.724c-0.918,-0.819 -2.661,-1.66 -4.153,-2.362c-0.709,-0.333 -1.521,-0.774 -1.873,-0.969l-0.002,-2.16c0.513,-0.042 0.916,-0.472 0.916,-0.996c-0,-0.552 -0.448,-1 -1,-1Zm5.041,24.015l-0,0.426c-0,0.392 -0.36,0.683 -0.812,0.94c-0.686,0.391 -1.637,0.619 -2.684,0.619c0,-0 -8.991,-0 -8.991,-0c-1.047,-0 -1.998,-0.228 -2.684,-0.619c-0.452,-0.257 -0.812,-0.548 -0.812,-0.94l0,-0.426l15.983,0Zm-13.998,-4.015l-0,1.985l12,-0l-0,-1.985l-12,-0Zm-1.957,-4.015l0,1.985l15.955,-0l-0,-1.985l-15.955,-0Zm1.957,-3.985l-0,1.985l12,-0l-0,-1.985l-12,-0Zm7.041,-10l0.002,2.563c0,0.261 0.093,0.606 0.432,0.933c0.368,0.355 1.391,0.875 2.591,1.439c1.146,0.539 2.467,1.151 3.338,1.779c0.254,0.183 0.537,0.496 0.594,0.561l-0,0.725c-0,-0 -15.983,-0 -15.983,-0l0,-0.723c0.059,-0.066 0.343,-0.378 0.599,-0.561c0.878,-0.628 2.209,-1.241 3.364,-1.779c1.208,-0.564 2.238,-1.084 2.609,-1.439c0.339,-0.325 0.433,-0.668 0.435,-0.93l0.015,-2.568l2.004,0Zm-2.019,2.562l-0,0.006l-0,-0.006Z"/></g></svg>